<svg xmlns="http://www.w3.org/2000/svg" viewBox="0 0 189.2 84.93"><defs><style>.cls-1{fill:#231815;}.cls-2,.cls-3{fill:none;stroke:#231815;stroke-miterlimit:10;}.cls-2{stroke-width:2px;}</style></defs><g id="圖層_2" data-name="圖層 2"><g id="Logo"><path class="cls-1" d="M69.43,46.86v0h0v.11Zm.68,9.7-.31-1.17A8.48,8.48,0,0,0,70,53.92c0-.5,0-1,.05-1.53V49c0-.18,0-.39-.05-.61a1.21,1.21,0,0,0-.16-.53h-.12l-.18-.73.09-.28.18-.2.18,0,.06-.24.35-.07.34.35v.11h.39l2.35-.24c.16,0,.34,0,.5.06a.92.92,0,0,1,.52.22v.43a.42.42,0,0,1-.37.25,2.68,2.68,0,0,0-.46,0l-.71,0a4,4,0,0,0-1,.11A3.19,3.19,0,0,0,71,48l0,.37,0,.22,0,1.32a.27.27,0,0,0,.28.15h.31a2.75,2.75,0,0,1,.89-.25c.3,0,.6-.05.89-.05l0-.1h.14l.32.1.12-.06a.88.88,0,0,0,.54.19.72.72,0,0,1,.48.26l.11.43-.11.15c-.1.09-.22.14-.32.22a.59.59,0,0,1-.34.1,5.13,5.13,0,0,0-.77-.12l-.76,0c-.25,0-.52.08-.76.12a5.93,5.93,0,0,0-.7.18v.11l-.37.08-.13,3,0,.81a5.91,5.91,0,0,0,0,.84,1.64,1.64,0,0,1-.21.75h-.21Z"/><path class="cls-1" d="M77.25,56.4l-.13-.65c.34-1.23.62-2.51.89-3.82s.43-2.61.56-4v-.25l.07-.29-.06-.19h.06l.08-.25h.07v-.07l.68-.06.14.13c.61,1.53,1.16,3.1,1.65,4.69s.89,3.22,1.26,4.82l-.09.08h-.28l-.6-.24a8.81,8.81,0,0,1-.43-1.68A12.31,12.31,0,0,0,80.68,53a2.66,2.66,0,0,0-.56-.12h-.61l-.8.18c-.14.59-.31,1.18-.51,1.78a10,10,0,0,0-.37,1.84h-.22Zm3.12-4.5-.86-2.39h-.12a3.52,3.52,0,0,0-.28,1.27,7.47,7.47,0,0,1-.19,1.27l.83,0,.16,0,.46,0Z"/><path class="cls-1" d="M88.91,56.64l-.24-.16-.24-.55a.3.3,0,0,1-.32-.12c-.11-.09-.21-.2-.32-.3-.25-.93-.47-1.87-.71-2.82a24.49,24.49,0,0,0-.82-2.76h-.08c-.05.27-.08.53-.11.82a3.89,3.89,0,0,1-.15.77l0,.32a4.43,4.43,0,0,0-.17,1.1,11.74,11.74,0,0,1-.1,1.18l0,.26a6,6,0,0,1-.12,1,3,3,0,0,1-.38.89l-.36.06-.45-.63v-.32a10.41,10.41,0,0,0,.63-2.41,18.38,18.38,0,0,0,.18-2.62L85,48.93l-.1,0,0-.26.11-.76-.07-.61.07-.1H85l.06-.15a3.91,3.91,0,0,1,.45-.3.66.66,0,0,1,.52-.07,2.1,2.1,0,0,1,.47.47,3,3,0,0,1,.36.58c.21,1.15.46,2.26.73,3.37s.53,2.26.74,3.42l.13,0,.3-5.75-.15-.19h-.07v-.12l.22-1.19-.05-.19.15-.37.2-.21.52-.06.22.15V47a.33.33,0,0,0-.11.27v.34l0,.79-.1.56.07.63c0,.21-.07.41-.09.61a5.52,5.52,0,0,1-.07.55l0,.17a7.19,7.19,0,0,0-.14.76,7,7,0,0,0,0,.8l0,.06v2.12l0,.52,0,.26-.2,1-.32.26Z"/><path class="cls-1" d="M94.59,56.53a3.18,3.18,0,0,1-.26-.59,2.83,2.83,0,0,1-.11-.65l0,0V52.48l0-.44c0-.51,0-1,0-1.52A6.18,6.18,0,0,0,94,49.08L93.94,49l-.13-1h-.08l-1.42.37-.24-.09a2.23,2.23,0,0,1-.07-.55V47.2l0-.14.21-.11.93.16,0,0h1.34l.78-.1a3.64,3.64,0,0,0,.74-.22l.52.07,0-.07.18.07.12-.07.37.32a.38.38,0,0,1,.08.26v.34l-.24.29-.94.15-.31,0-.21,0-.1,0-.65,0-.06,2.1a5.31,5.31,0,0,1,.06.83V52l0,.83,0,.41,0,0V56.3l-.11.23-.21,0Z"/><path class="cls-1" d="M101.4,56.49l-.24-.83a3.68,3.68,0,0,0,.31-1.41c0-.51,0-1,0-1.55l-.08-1,0-.18-.24-3.21-.31-.13a.75.75,0,0,0-.13-.37,1.81,1.81,0,0,0-.24-.24V47.2c.27-.09.55-.2.82-.31a1.86,1.86,0,0,1,.92-.11,1.65,1.65,0,0,1,.41.14,1.19,1.19,0,0,1,.33.34l0,.37-.06.18h-.09v.09l-.27.11a11.51,11.51,0,0,0-.13,1.43c0,.47-.07.93-.13,1.39l.14,1.47,0,.24,0,.6-.08,1.09,0,.36,0,.79.66.28.05.46-.31.33-1.21,0Z"/><path class="cls-1" d="M111.22,56.64l-.23-.16-.24-.55a.32.32,0,0,1-.33-.12l-.31-.3c-.25-.93-.47-1.87-.71-2.82a26.75,26.75,0,0,0-.82-2.76h-.09c0,.27-.07.53-.1.82a4.77,4.77,0,0,1-.15.77l.05.32a4.43,4.43,0,0,0-.17,1.1c0,.39-.06.79-.1,1.18l0,.26a7.35,7.35,0,0,1-.12,1,3.06,3.06,0,0,1-.39.89l-.35.06-.45-.63v-.32a9.92,9.92,0,0,0,.62-2.41,18.38,18.38,0,0,0,.18-2.62l-.25-1.39-.1,0,0-.26.12-.76-.07-.61.07-.1h.06l.06-.15a3.76,3.76,0,0,1,.44-.3.68.68,0,0,1,.52-.07,2,2,0,0,1,.48.47,3.59,3.59,0,0,1,.36.58c.2,1.15.46,2.26.72,3.37s.54,2.26.75,3.42l.13,0,.3-5.75-.15-.19h-.08v-.12l.23-1.19,0-.19.15-.37.19-.21.52-.06.23.15V47a.33.33,0,0,0-.11.27v.34l0,.79-.1.56.07.63c0,.21-.07.41-.09.61a5.52,5.52,0,0,1-.07.55l0,.17a7.11,7.11,0,0,0-.13.76,7,7,0,0,0-.05.8l0,.06v2.12l0,.52,0,.26-.19,1-.33.26Z"/><path class="cls-1" d="M114.22,56.79h0v0a8.63,8.63,0,0,0,.42-1.94c.06-.7.11-1.4.16-2.11V49.28l-.18-.67a.63.63,0,0,1-.15-.43v-.52l.11-.63.5-.23.31.13a4.77,4.77,0,0,1,1.65-.28,10.89,10.89,0,0,0,1.72-.14l.32.21,0,.36-.25.41-1.85.27-.17-.06a2.67,2.67,0,0,0-.5.17,1.62,1.62,0,0,0-.49.31l0,.29,0,.72-.06.78h.06l0,.26,1.16.06,1.47-.17.59.22.12.41L119,51H119l0,.15a6.9,6.9,0,0,0-1.65.19,5.49,5.49,0,0,0-1.55.63c0,.53-.07,1-.11,1.54s-.11,1-.17,1.49h.39l.74-.06.53.13h1.82l.86.19v.48l-.12.31-.19.06-1.06-.1c-.59.13-1.2.23-1.81.31a6.51,6.51,0,0,0-1.77.46l-.14-.11-.15.11-.27.2Z"/><path class="cls-1" d="M91.42,40.17a.62.62,0,0,1-.25-.28.4.4,0,0,0-.38-.18H90.3l-.2-1.45,4.74-2.07a11,11,0,0,0,.8-1.07A11.43,11.43,0,0,1,96.38,34a2.66,2.66,0,0,0,.48-1.18,13,13,0,0,1,.28-1.35l-3.8-.2a4.22,4.22,0,0,1-1.23.2,2.06,2.06,0,0,0-1.25.41c-.38.28-.74.51-1.12.74a5.37,5.37,0,0,1-1.17.54L87.24,36h-.36l-1,1.68a3.07,3.07,0,0,1-.46.36,3,3,0,0,1-.56.26,2.49,2.49,0,0,1-.59.07h-.66l-.38-1.71a2,2,0,0,0,.84-.25,4.16,4.16,0,0,0,.79-.51,4.19,4.19,0,0,1,.64-.51,5.65,5.65,0,0,0,.77-.59,17.43,17.43,0,0,1,1.35-1.68c.51-.59,1-1.13,1.61-1.71s1.07-1.13,1.6-1.69a2.86,2.86,0,0,0,.77-2H90.3a18,18,0,0,0-2,.51,13.14,13.14,0,0,0-1.89.84,20.26,20.26,0,0,1-1.79.95c-.66.28-1.3.53-1.94.76l-.15-1.38,1.12-1.35a6,6,0,0,0,2.09-.33,11.75,11.75,0,0,1,2.1-.51c.76-.13,1.45-.28,2.09-.43A14.07,14.07,0,0,1,92,26.37l.18-2h.36v-.54H92l-.76,1.54-1.15.17-.59-1.17h-.33l-3.45.82-.4-.16V24.5L86.5,23h.38v-.31l1.69-.15.61-1.38,1.5-.18.57,1h2.47l1.94-.18.15-1.86h.39v-.18h.41a3.4,3.4,0,0,0,.43.44,1.48,1.48,0,0,1,.41.58,5.84,5.84,0,0,0,.18.69,2.26,2.26,0,0,1,.1.69l2.45.51v.84l-1.71.87L97,24.15l-.76,1.2h-.77l-.59-.18v-.49l.23-.87H92.75v.34H93v.35l.54.18.38,1.51a14.6,14.6,0,0,1,3.37,0,31,31,0,0,1,3.11.51,31.63,31.63,0,0,0,3.14.51,15.79,15.79,0,0,1,3.17.71h-.41l-.39.67a1.07,1.07,0,0,1-.58.48,1.67,1.67,0,0,1-.77.18h-1.68c-.77-.13-1.51-.23-2.27-.41l-2.3-.53c-.77-.18-1.53-.34-2.3-.49a10.71,10.71,0,0,0-2.47-.25v.66l.2,1.17a4.25,4.25,0,0,0,1.35.18,13,13,0,0,1,1.43.08c.41.08.85.15,1.23.25a5.19,5.19,0,0,1,1.12.54V31a4.45,4.45,0,0,1-.56,2.2,8,8,0,0,0-.84,2.11,6.05,6.05,0,0,1-1,2,10.21,10.21,0,0,1-1.91,1.76l-2.07,1v.18l-.61.18A1.11,1.11,0,0,0,91.42,40.17Z"/><polygon class="cls-2" points="186.76 42.42 94.7 1.1 2.44 42.51 94.5 83.83 186.76 42.42"/><line class="cls-3" x1="100.93" y1="3.89" x2="8.67" y2="45.31"/><line class="cls-3" x1="180.53" y1="45.21" x2="88.49" y2="3.9"/><line class="cls-3" x1="88.27" y1="81.03" x2="180.53" y2="39.62"/><line class="cls-3" x1="82.04" y1="78.24" x2="174.3" y2="36.82"/><line class="cls-3" x1="174.3" y1="48.01" x2="82.24" y2="6.69"/><line class="cls-3" x1="107.16" y1="6.69" x2="14.9" y2="48.1"/><line class="cls-3" x1="14.97" y1="36.95" x2="106.96" y2="78.24"/><line class="cls-3" x1="8.67" y1="39.71" x2="100.73" y2="81.03"/></g></g></svg>